<svg id="visual" viewBox="0 0 900 450" width="900" height="450" xmlns="http://www.w3.org/2000/svg" xmlns:xlink="http://www.w3.org/1999/xlink" version="1.1"><rect x="0" y="0" width="900" height="450" fill="#001220"></rect><defs><linearGradient id="grad1_0" x1="50%" y1="0%" x2="100%" y2="100%"><stop offset="10%" stop-color="#001220" stop-opacity="1"></stop><stop offset="90%" stop-color="#001220" stop-opacity="1"></stop></linearGradient></defs><defs><linearGradient id="grad2_0" x1="0%" y1="0%" x2="50%" y2="100%"><stop offset="10%" stop-color="#001220" stop-opacity="1"></stop><stop offset="90%" stop-color="#001220" stop-opacity="1"></stop></linearGradient></defs><g transform="translate(900, 0)"><path d="M0 405C-45.4 381 -90.9 357 -141.2 340.9C-191.6 324.9 -246.9 316.7 -286.4 286.4C-325.9 256 -349.6 203.4 -366.8 151.9C-383.9 100.5 -394.5 50.2 -405 0L0 0Z" fill="#0066FF"></path></g><g transform="translate(0, 450)"><path d="M0 -405C49.5 -392.1 99 -379.2 150 -362.2C201.1 -345.1 253.7 -324 286.4 -286.4C319.1 -248.8 331.9 -194.7 348.3 -144.3C364.8 -93.8 384.9 -46.9 405 0L0 0Z" fill="#0066FF"></path></g></svg>