<svg id="visual" viewBox="0 0 900 450" width="900" height="450" xmlns="http://www.w3.org/2000/svg" xmlns:xlink="http://www.w3.org/1999/xlink" version="1.1"><rect x="0" y="0" width="900" height="450" fill="#00131c"></rect><path d="M0 296L13.7 297.8C27.3 299.7 54.7 303.3 82 304.5C109.3 305.7 136.7 304.3 163.8 293.2C191 282 218 261 245.2 258.8C272.3 256.7 299.7 273.3 327 274.8C354.3 276.3 381.7 262.7 409 268.5C436.3 274.3 463.7 299.7 491 311.3C518.3 323 545.7 321 573 305.3C600.3 289.7 627.7 260.3 654.8 254.7C682 249 709 267 736.2 278.7C763.3 290.3 790.7 295.7 818 288.8C845.3 282 872.7 263 886.3 253.5L900 244" fill="none" stroke="#0066FF" stroke-width="40" stroke-linecap="round" stroke-linejoin="miter"></path></svg>