<svg id="visual" viewBox="0 0 900 450" width="900" height="450" xmlns="http://www.w3.org/2000/svg" xmlns:xlink="http://www.w3.org/1999/xlink" version="1.1"><rect x="0" y="0" width="900" height="450" fill="#00131c"></rect><path d="M0 343L10.7 355.5C21.3 368 42.7 393 64.2 404C85.7 415 107.3 412 128.8 397.3C150.3 382.7 171.7 356.3 193 347.7C214.3 339 235.7 348 257 344.5C278.3 341 299.7 325 321.2 319.8C342.7 314.7 364.3 320.3 385.8 319.8C407.3 319.3 428.7 312.7 450 317.8C471.3 323 492.7 340 514.2 357.5C535.7 375 557.3 393 578.8 397.3C600.3 401.7 621.7 392.3 643 387.7C664.3 383 685.7 383 707 375.7C728.3 368.3 749.7 353.7 771.2 357C792.7 360.3 814.3 381.7 835.8 378.3C857.3 375 878.7 347 889.3 333L900 319" fill="none" stroke-linecap="round" stroke-linejoin="miter" stroke="#0066FF" stroke-width="40"></path></svg>